<?xml version="1.0" encoding="UTF-8" standalone="no"?>
<!-- Created with Inkscape (http://www.inkscape.org/) -->

<svg
   xmlns:dc="http://purl.org/dc/elements/1.1/"
   xmlns:cc="http://creativecommons.org/ns#"
   xmlns:rdf="http://www.w3.org/1999/02/22-rdf-syntax-ns#"
   xmlns:svg="http://www.w3.org/2000/svg"
   xmlns="http://www.w3.org/2000/svg"
   xmlns:sodipodi="http://sodipodi.sourceforge.net/DTD/sodipodi-0.dtd"
   xmlns:inkscape="http://www.inkscape.org/namespaces/inkscape"
   width="233.72472"
   height="83.168678"
   id="svg2"
   version="1.1"
   inkscape:version="0.48.1 "
   sodipodi:docname="new_logo.svg">
  <defs
     id="defs4" />
  <sodipodi:namedview
     id="base"
     pagecolor="#ffffff"
     bordercolor="#666666"
     borderopacity="1.0"
     inkscape:pageopacity="0.0"
     inkscape:pageshadow="2"
     inkscape:zoom="2.8"
     inkscape:cx="111.8931"
     inkscape:cy="-8.2109603"
     inkscape:document-units="px"
     inkscape:current-layer="layer1"
     showgrid="false"
     inkscape:window-width="1626"
     inkscape:window-height="1138"
     inkscape:window-x="286"
     inkscape:window-y="-8"
     inkscape:window-maximized="1"
     fit-margin-top="10.1"
     fit-margin-left="5.4"
     fit-margin-right="3.4"
     fit-margin-bottom="3.8" />
  <metadata
     id="metadata7">
    <rdf:RDF>
      <cc:Work
         rdf:about="">
        <dc:format>image/svg+xml</dc:format>
        <dc:type
           rdf:resource="http://purl.org/dc/dcmitype/StillImage" />
        <dc:title />
      </cc:Work>
    </rdf:RDF>
  </metadata>
  <g
     inkscape:label="Layer 1"
     inkscape:groupmode="layer"
     id="layer1"
     transform="translate(-143.1109,-642.97647)">
    <path
       style="fill:#000000;fill-opacity:1;stroke:none"
       d="m 196.78572,672.63004 c 1.09491,0.89643 1.30862,-2.88499 -0.80357,-4.55357 -11.26605,-9.68013 -50.18201,-18.87388 -47.32143,-0.625 26.33913,27.09995 69.76773,38.54825 18.75,37.94643 -4.16187,-1.06349 -17.09963,-3.52123 -6.42857,-8.39286 -2.65377,-1.26481 -9.73696,-1.64648 -8.30357,4.10714 2.7947,3.94225 3.80342,6.38397 17.67857,9.10715 l 14.82142,0 c 3.18559,-1.21724 14.3721,-2.12931 13.03572,-10.98215 -0.18927,-3.87971 -28.64937,-20.30578 -39.91266,-29.70769 -1.84871,-1.54319 -1.76257,-4.13129 -1.42663,-6.09588 0.82191,-3.36211 17.43691,-0.6095 25,1.60714 4.67182,1.15604 8.08588,4.32451 11.60715,7.32144 1.15521,0.35333 0.57195,0.13453 3.30357,0.26785 z"
       id="path3787"
       inkscape:connector-curvature="0"
       sodipodi:nodetypes="cccccccccscccc"
       inkscape:export-filename="C:\Users\snutecht\Desktop\logo_png2.png"
       inkscape:export-xdpi="87.724617"
       inkscape:export-ydpi="87.724617" />
    <path
       style="fill:#000000;fill-opacity:1;stroke:none"
       d="m 189.28125,675.40625 2.0625,4.53125 7.3125,0.5625 1.625,23.125 0.96875,9.375 3.65625,2.5625 -0.875,-22.03125 c 3.6284,-1.29298 6.47214,-1.70368 12.5625,-5.90625 l -0.15625,-5.25 c -9.20221,-6.18625 -18.18655,-6.59536 -27.15625,-6.96875 z m 12.59375,4.375 c 7.3859,1.144 9.50941,3.3879 12.59375,5.4375 -3.57785,3.64281 -8.13309,4.18268 -12.40625,4.8125 0,0 -0.009,-9.80357 -0.1875,-10.25 z"
       id="path3789"
       inkscape:connector-curvature="0"
       inkscape:export-filename="C:\Users\snutecht\Desktop\logo_png2.png"
       inkscape:export-xdpi="87.724617"
       inkscape:export-ydpi="87.724617" />
    <path
       style="fill:#000000;fill-opacity:1;stroke:none"
       d="m 222.14732,665.41071 -4.46875,4.09375 -4.375,40.8125 4.09375,-2.5 0.28125,-7.6875 3.46875,-2.0625 1.625,16.53125 3.65625,-2.875 -4.28125,-46.3125 z m -2.5,11.25 1.59375,14.8125 -3.90625,2.3125 2.3125,-17.125 z"
       id="path3794"
       inkscape:connector-curvature="0"
       inkscape:export-filename="C:\Users\snutecht\Desktop\logo_png2.png"
       inkscape:export-xdpi="87.724617"
       inkscape:export-ydpi="87.724617" />
    <path
       style="fill:#000000;fill-opacity:1;stroke:none"
       d="m 247.5,668.96932 -2.14286,8.57143 c -14.59459,7.83538 -14.63334,11.49751 -15.44643,13.92857 0.11245,1.99129 -0.0833,4.38236 0.0893,6.78572 0.63094,1.63304 2.34928,2.55384 8.39286,-1.69643 l 0.44643,2.94643 c -7.37139,7.22205 -14.17616,2.32561 -13.57143,-1.78572 l 0.53571,-7.05357 C 231.38128,678.23931 238.9771,674.324 247.5,668.96932 z"
       id="path3799"
       inkscape:connector-curvature="0"
       sodipodi:nodetypes="ccccccccc"
       inkscape:export-filename="C:\Users\snutecht\Desktop\logo_png2.png"
       inkscape:export-xdpi="87.724617"
       inkscape:export-ydpi="87.724617" />
    <path
       style="fill:#000000;fill-opacity:1;stroke:none"
       d="m 240.80357,686.0229 0,20.80357 16.875,-9.55357 0.17857,-4.55358 -12.41071,6.33929 -0.0893,-2.58929 7.32143,-4.01785 0.26786,-2.5 -7.67857,3.39285 0,-4.73214 12.05357,-5.89286 -0.26786,-5.35714 z"
       id="path3801"
       inkscape:connector-curvature="0"
       inkscape:export-filename="C:\Users\snutecht\Desktop\logo_png2.png"
       inkscape:export-xdpi="87.724617"
       inkscape:export-ydpi="87.724617" />
    <path
       style="fill:#000000;fill-opacity:1;stroke:none"
       d="m 268.83929,695.21932 -0.17858,-6.16071 13.57143,-5.53571 -1.96428,20.89285 -3.66072,2.85714 c 0.0893,-2.85136 -0.35714,-3.15476 -0.26785,-5.08928 -9.65337,14.67045 -14.70491,5.56092 -15.95553,-5.46969 -0.51867,-4.57477 0.15892,-10.08675 0.15196,-13.45888 1.56018,-13.70341 19.614,-46.70768 22.85714,-22.5 0.29767,-2.35119 0.54702,-4.70238 1.07143,-7.05357 l 10.44643,-7.05357 c -5.04195,8.80491 -8.3682,22.9714 -15.17857,26.24999 4.08362,-29.88941 -11.68719,-3.42304 -14.01786,8.92857 l -0.35715,17.67858 c 0.19758,2.2467 0.66922,4.27415 3.21429,4.64286 4.47816,-1.03783 8.26081,-6.15045 9.19643,-14.01786 z"
       id="path3803"
       inkscape:connector-curvature="0"
       sodipodi:nodetypes="ccccccscccccccccc"
       inkscape:export-filename="C:\Users\snutecht\Desktop\logo_png2.png"
       inkscape:export-xdpi="87.724617"
       inkscape:export-ydpi="87.724617" />
    <path
       style="fill:#000000;fill-opacity:1;stroke:none"
       d="m 293.125,672.45147 c 1.70821,7.88969 -13.05019,16.08198 -5.08928,24.46428 6.90353,-3.80821 6.76829,-9.60895 8.39285,-16.69643 l -4.10714,2.32143 4.28571,-7.05357 2.85715,0.89286 c 0.3048,10.51606 -2.80324,20.02388 -8.83929,23.39286 l -4.10714,-0.17858 c -2.30613,-1.32079 -2.24837,-3.23255 -2.76786,-5 -0.96445,-9.17002 4.50648,-16.15689 9.375,-22.14285 z"
       id="path3805"
       inkscape:connector-curvature="0"
       sodipodi:nodetypes="cccccccccc"
       inkscape:export-filename="C:\Users\snutecht\Desktop\logo_png2.png"
       inkscape:export-xdpi="87.724617"
       inkscape:export-ydpi="87.724617" />
    <path
       inkscape:connector-curvature="0"
       id="path3807"
       d="m 310.14732,657.41071 -4.46875,4.09375 -4.375,40.8125 4.09375,-2.5 0.28125,-7.6875 3.46875,-2.0625 1.625,16.53125 3.65625,-2.875 -4.28125,-46.3125 z m -2.5,11.25 1.59375,14.8125 -3.90625,2.3125 2.3125,-17.125 z"
       style="fill:#000000;fill-opacity:1;stroke:none"
       inkscape:export-filename="C:\Users\snutecht\Desktop\logo_png2.png"
       inkscape:export-xdpi="87.724617"
       inkscape:export-ydpi="87.724617" />
    <path
       style="fill:#000000;fill-opacity:1;stroke:none"
       d="m 345.26786,653.07647 -32.5,11.07143 0.0893,3.21428 10.26786,-2.94643 -4.28571,22.94644 -1.07143,15.17856 6.16071,-3.92857 3.48215,-34.46428 13.83928,-4.19643 z"
       id="path3809"
       inkscape:connector-curvature="0"
       sodipodi:nodetypes="cccccccccc"
       inkscape:export-filename="C:\Users\snutecht\Desktop\logo_png2.png"
       inkscape:export-xdpi="87.724617"
       inkscape:export-ydpi="87.724617" />
    <path
       style="fill:#000000;fill-opacity:1;stroke:none"
       d="m 341.42857,673.29968 0.17857,-3.57143 c -9.60393,5.22342 -11.41532,12.0382 0.84822,12.76786 0.25657,3.09835 0.18377,4.54982 0.22321,6.5625 -4.11165,7.20992 -10.04565,10.76385 -10.9375,10.3125 -2.23268,-0.0893 -3.98916,-0.17857 -5.89285,-0.26786 -0.24622,-1.66667 -0.85846,-3.33333 -0.22322,-5 l 2.67857,-2.32143 c -0.10878,1.08006 -0.8199,2.05061 0.26786,3.34822 0.4429,0.75615 2.15851,0.36688 3.75,0.0893 3.30749,-2.2041 4.53334,-2.18192 7.05357,-9.37499 -2.71151,-1.29518 -0.36422,-0.2505 -7.59106,-2.52146 -0.75451,-0.23709 -1.44754,-0.29127 -2.18572,-0.96069 -1.75539,-8.20794 6.27644,-13.81286 11.02678,-15.84821 l 4.86607,-0.0893 c -0.34937,2.58938 -0.5871,5.21184 -4.0625,6.87499 z"
       id="path3813"
       inkscape:connector-curvature="0"
       sodipodi:nodetypes="cccccccccccscccc"
       inkscape:export-filename="C:\Users\snutecht\Desktop\logo_png2.png"
       inkscape:export-xdpi="87.724617"
       inkscape:export-ydpi="87.724617" />
    <path
       style="fill:#000000;fill-opacity:1;stroke:none"
       d="m 284.53672,707.64939 3.35183,-1.52811 -0.30782,7.64054 -2.18895,0.85139 c -1.80039,-2.96479 -3.8932,-4.53841 -5.54079,-1.81191 l 0,4.49701 c 0.28802,1.48368 2.26468,2.22119 3.62546,3.23086 0.43389,-0.15709 1.09145,-0.19178 1.6075,-0.87321 0.21341,0.50541 0.63578,0.92739 0.34203,1.5281 -0.81194,0.39691 -0.12782,0.20505 -2.29157,0.7204 l -0.99186,0.0436 c -3.22733,-1.1354 -4.68648,-2.74037 -5.13037,-4.84629 l -0.17101,-4.58433 c 2.009,-3.10086 3.7673,-4.93907 7.69555,-2.22666 z"
       id="path3815"
       inkscape:connector-curvature="0"
       sodipodi:nodetypes="ccccccccccccccc"
       inkscape:export-filename="C:\Users\snutecht\Desktop\logo_png2.png"
       inkscape:export-xdpi="87.724617"
       inkscape:export-ydpi="87.724617" />
    <path
       style="fill:#000000;fill-opacity:1;stroke:none"
       d="m 289.87572,713.65021 -2.20264,0.36674 c -2.15087,1.88183 -2.0608,3.32245 -1.84351,5.65401 1.00202,0.61337 1.92484,1.00121 3.23213,1.19193 l 2.10687,-1.40587 0.14365,-4.75241 -1.4365,-1.0544 z m 0,1.22248 0.0958,4.06478 -1.10132,1.06967 -1.12526,-0.25977 -0.79007,-1.17665 0.0478,-2.10879 1.10131,-1.22249 1.77169,-0.36675 z"
       id="path3817"
       inkscape:export-filename="C:\Users\snutecht\Desktop\logo_png2.png"
       inkscape:export-xdpi="87.724617"
       inkscape:export-ydpi="87.724617"
       inkscape:connector-curvature="0" />
    <path
       style="fill:#000000;fill-opacity:1;stroke:none"
       d="m 296.48361,708.69914 -4.93198,1.46698 -0.0719,0.97799 1.50833,0.15282 -1.00554,8.20593 -1.22104,0.67237 0.0958,1.29889 4.23768,-0.80989 -0.23941,-1.14608 -1.31679,0.0458 -0.11971,-1.1308 2.37022,-0.0458 0.88584,2.09352 -1.10131,0.29034 -0.0239,1.57394 3.28,-1.06967 -0.26335,-1.36002 -0.64643,0.0458 -2.51388,-9.5354 1.17314,-0.0764 -0.0958,-1.65035 z m -2.15475,4.23286 c 0.56327,1.1756 1.29619,2.28405 1.4365,3.62162 l -2.22657,0.0305 0.79007,-3.65219 z"
       id="path3822"
       inkscape:export-filename="C:\Users\snutecht\Desktop\logo_png2.png"
       inkscape:export-xdpi="87.724617"
       inkscape:export-ydpi="87.724617"
       inkscape:connector-curvature="0" />
    <path
       style="fill:#000000;fill-opacity:1;stroke:none"
       d="m 302.49298,710.39999 1.40231,0.0219 0.2052,2.16117 c -7.18685,0.0171 -4.36723,1.76475 -1.26544,2.81603 2.49822,0.84671 4.44842,2.61434 -1.84698,3.05625 l -0.0684,0.89503 -1.74433,0.0436 0.0684,-2.33583 1.19709,0.17465 0.71825,0.34928 c 4.62723,-0.50214 -0.65261,-1.74548 -3.04401,-2.64144 -0.97734,-1.19963 0.69317,-3.76791 2.73619,-3.68929 l 1.16288,0.19646 z"
       id="path3827"
       inkscape:connector-curvature="0"
       sodipodi:nodetypes="cccscccccccccc"
       inkscape:export-filename="C:\Users\snutecht\Desktop\logo_png2.png"
       inkscape:export-xdpi="87.724617"
       inkscape:export-ydpi="87.724617" />
    <path
       style="fill:#000000;fill-opacity:1;stroke:none"
       d="m 300.85811,708.08599 14.29661,-1.02602 -0.85506,1.92105 -6.01963,0.13098 0.30782,9.40879 1.4365,0.24013 -0.13681,1.50628 -5.78019,0.2183 0.0342,-1.30981 1.88113,-0.58941 0.20521,-8.99402 -5.84861,0.0873 z"
       id="path3831"
       inkscape:connector-curvature="0"
       inkscape:export-filename="C:\Users\snutecht\Desktop\logo_png2.png"
       inkscape:export-xdpi="87.724617"
       inkscape:export-ydpi="87.724617" />
    <path
       sodipodi:nodetypes="ccccccccccccccc"
       inkscape:connector-curvature="0"
       id="path3848"
       d="m 342.81762,704.94245 3.35183,-1.5281 -0.30782,7.64054 -2.18895,0.85138 c -1.80039,-2.96478 -3.89319,-4.53841 -5.54079,-1.8119 l 0,4.497 c 0.28802,1.48368 2.26468,2.2212 3.62545,3.23086 0.4339,-0.15708 1.09146,-0.19177 1.60751,-0.87321 0.2134,0.50542 0.63578,0.9274 0.34203,1.52811 -0.81194,0.39692 -0.12781,0.20505 -2.29156,0.7204 l -0.99187,0.0436 c -3.22733,-1.1354 -4.68649,-2.74037 -5.13036,-4.84629 l -0.17101,-4.58433 c 2.00899,-3.10087 3.7673,-4.93907 7.69554,-2.22667 z"
       style="fill:#000000;fill-opacity:1;stroke:none"
       inkscape:export-filename="C:\Users\snutecht\Desktop\logo_png2.png"
       inkscape:export-xdpi="87.724617"
       inkscape:export-ydpi="87.724617" />
    <path
       id="path3850"
       d="m 348.15661,710.94327 -2.20263,0.36675 c -2.15087,1.88182 -2.06079,3.32246 -1.84351,5.654 1.00202,0.61337 1.92484,1.00121 3.23212,1.19193 l 2.10687,-1.40586 0.14365,-4.75242 -1.4365,-1.0544 z m 0,1.22249 0.0958,4.06477 -1.10131,1.06968 -1.12527,-0.25978 -0.79007,-1.17664 0.0478,-2.10879 1.10132,-1.22249 1.77168,-0.36675 z"
       style="fill:#000000;fill-opacity:1;stroke:none"
       inkscape:connector-curvature="0"
       inkscape:export-filename="C:\Users\snutecht\Desktop\logo_png2.png"
       inkscape:export-xdpi="87.724617"
       inkscape:export-ydpi="87.724617" />
    <path
       id="path3852"
       d="m 354.76452,705.9922 -4.93199,1.46699 -0.0718,0.97799 1.50832,0.15281 -1.00555,8.20594 -1.22102,0.67237 0.0958,1.29889 4.23768,-0.8099 -0.23942,-1.14608 -1.31679,0.0458 -0.11971,-1.13081 2.37023,-0.0458 0.88584,2.0935 -1.10132,0.29035 -0.0239,1.57395 3.28001,-1.06968 -0.26336,-1.36001 -0.64642,0.0458 -2.51388,-9.53539 1.17314,-0.0764 -0.0958,-1.65036 z m -2.15475,4.23287 c 0.56325,1.1756 1.29619,2.28404 1.4365,3.62161 l -2.22658,0.0305 0.79008,-3.65218 z"
       style="fill:#000000;fill-opacity:1;stroke:none"
       inkscape:connector-curvature="0"
       inkscape:export-filename="C:\Users\snutecht\Desktop\logo_png2.png"
       inkscape:export-xdpi="87.724617"
       inkscape:export-ydpi="87.724617" />
    <path
       sodipodi:nodetypes="cccscccccccccc"
       inkscape:connector-curvature="0"
       id="path3854"
       d="m 360.77388,707.69305 1.4023,0.0219 0.20521,2.16118 c -7.18685,0.0171 -4.36723,1.76475 -1.26544,2.81603 2.49822,0.84671 4.44841,2.61433 -1.84698,3.05625 l -0.0684,0.89503 -1.74433,0.0436 0.0684,-2.33583 1.19709,0.17464 0.71826,0.34928 c 4.62722,-0.50213 -0.65261,-1.74548 -3.04402,-2.64144 -0.97734,-1.19962 0.69317,-3.7679 2.7362,-3.68929 l 1.16287,0.19647 z"
       style="fill:#000000;fill-opacity:1;stroke:none"
       inkscape:export-filename="C:\Users\snutecht\Desktop\logo_png2.png"
       inkscape:export-xdpi="87.724617"
       inkscape:export-ydpi="87.724617" />
    <path
       inkscape:connector-curvature="0"
       id="path3856"
       d="m 359.139,705.37906 14.29662,-1.02602 -0.85506,1.92105 -6.01964,0.13098 0.30783,9.40878 1.4365,0.24013 -0.13681,1.50629 -5.7802,0.2183 0.0342,-1.30981 1.88114,-0.58941 0.2052,-8.99401 -5.84861,0.0873 z"
       style="fill:#000000;fill-opacity:1;stroke:none"
       inkscape:export-filename="C:\Users\snutecht\Desktop\logo_png2.png"
       inkscape:export-xdpi="87.724617"
       inkscape:export-ydpi="87.724617" />
    <path
       style="fill:#000000;fill-opacity:1;stroke:#000000;stroke-width:0.61207467px;stroke-linecap:butt;stroke-linejoin:miter;stroke-opacity:1"
       d="m 321.03068,707.86769 c 0,0.15281 -0.0342,3.60197 -0.0342,3.60197 l -1.91533,0.5021 0,1.00418 1.64171,-0.13098 -0.13681,3.01255 1.3681,0 0.0342,-4.0604 1.60752,-0.28379 -0.34202,-0.82954 -1.50491,0.28379 0.30782,-3.20903 -1.3681,0.10915 z"
       id="path3858"
       inkscape:connector-curvature="0"
       inkscape:export-filename="C:\Users\snutecht\Desktop\logo_png2.png"
       inkscape:export-xdpi="87.724617"
       inkscape:export-ydpi="87.724617" />
    <path
       sodipodi:nodetypes="cccccccccc"
       inkscape:connector-curvature="0"
       id="path3865"
       d="m 325.33138,710.66195 c 0.36486,1.23557 -2.78736,2.51853 -1.087,3.83126 1.47451,-0.5964 1.44562,-1.50482 1.79261,-2.61477 l -0.87723,0.36355 0.91537,-1.10463 0.61025,0.13983 c 0.0651,1.64688 -0.59873,3.13586 -1.88795,3.66346 l -0.87724,-0.0279 c -0.49257,-0.20685 -0.48023,-0.50624 -0.59118,-0.78304 -0.206,-1.43608 0.96252,-2.53027 2.00237,-3.4677 z"
       style="fill:#000000;fill-opacity:1;stroke:#000000;stroke-width:0.61207467;stroke-opacity:1"
       inkscape:export-filename="C:\Users\snutecht\Desktop\logo_png2.png"
       inkscape:export-xdpi="87.724617"
       inkscape:export-ydpi="87.724617" />
  </g>
</svg>
