<?xml version="1.0" encoding="UTF-8" standalone="no"?>
<!-- Created with Inkscape (http://www.inkscape.org/) -->

<svg
   xmlns:dc="http://purl.org/dc/elements/1.1/"
   xmlns:cc="http://creativecommons.org/ns#"
   xmlns:rdf="http://www.w3.org/1999/02/22-rdf-syntax-ns#"
   xmlns:svg="http://www.w3.org/2000/svg"
   xmlns="http://www.w3.org/2000/svg"
   xmlns:sodipodi="http://sodipodi.sourceforge.net/DTD/sodipodi-0.dtd"
   xmlns:inkscape="http://www.inkscape.org/namespaces/inkscape"
   width="744.09448819"
   height="1052.3622047"
   id="svg2"
   version="1.1"
   inkscape:version="0.48.1 "
   sodipodi:docname="new_logo.svg">
  <defs
     id="defs4" />
  <sodipodi:namedview
     id="base"
     pagecolor="#ffffff"
     bordercolor="#666666"
     borderopacity="1.0"
     inkscape:pageopacity="0.0"
     inkscape:pageshadow="2"
     inkscape:zoom="2.8"
     inkscape:cx="255.00402"
     inkscape:cy="318.00602"
     inkscape:document-units="px"
     inkscape:current-layer="layer1"
     showgrid="false"
     inkscape:window-width="1626"
     inkscape:window-height="1138"
     inkscape:window-x="286"
     inkscape:window-y="-8"
     inkscape:window-maximized="1" />
  <metadata
     id="metadata7">
    <rdf:RDF>
      <cc:Work
         rdf:about="">
        <dc:format>image/svg+xml</dc:format>
        <dc:type
           rdf:resource="http://purl.org/dc/dcmitype/StillImage" />
        <dc:title></dc:title>
      </cc:Work>
    </rdf:RDF>
  </metadata>
  <g
     inkscape:label="Layer 1"
     inkscape:groupmode="layer"
     id="layer1">
    <path
       style="fill:#000000;stroke:none;stroke-width:1px;stroke-linecap:butt;stroke-linejoin:miter;stroke-opacity:1;fill-opacity:1"
       d="m 196.78572,672.63004 c 1.09491,0.89643 1.30862,-2.88499 -0.80357,-4.55357 -11.26605,-9.68013 -50.18201,-18.87388 -47.32143,-0.625 26.33913,27.09995 69.76773,38.54825 18.75,37.94643 -4.16187,-1.06349 -17.09963,-3.52123 -6.42857,-8.39286 -2.65377,-1.26481 -9.73696,-1.64648 -8.30357,4.10714 2.7947,3.94225 3.80342,6.38397 17.67857,9.10715 l 14.82142,0 c 3.18559,-1.21724 14.3721,-2.12931 13.03572,-10.98215 -0.18927,-3.87971 -28.64937,-20.30578 -39.91266,-29.70769 -1.84871,-1.54319 -1.76257,-4.13129 -1.42663,-6.09588 0.82191,-3.36211 17.43691,-0.6095 25,1.60714 4.67182,1.15604 8.08588,4.32451 11.60715,7.32144 1.15521,0.35333 0.57195,0.13453 3.30357,0.26785 z"
       id="path3787"
       inkscape:connector-curvature="0"
       sodipodi:nodetypes="cccccccccscccc"
       inkscape:export-filename="C:\Users\snutecht\Desktop\logo_png2.png"
       inkscape:export-xdpi="87.724617"
       inkscape:export-ydpi="87.724617" />
    <path
       style="fill:#000000;fill-opacity:1;stroke:none"
       d="m 189.28125,675.40625 2.0625,4.53125 7.3125,0.5625 1.625,23.125 0.96875,9.375 3.65625,2.5625 -0.875,-22.03125 c 3.6284,-1.29298 6.47214,-1.70368 12.5625,-5.90625 l -0.15625,-5.25 c -9.20221,-6.18625 -18.18655,-6.59536 -27.15625,-6.96875 z m 12.59375,4.375 c 7.3859,1.144 9.50941,3.3879 12.59375,5.4375 -3.57785,3.64281 -8.13309,4.18268 -12.40625,4.8125 0,0 -0.009,-9.80357 -0.1875,-10.25 z"
       id="path3789"
       inkscape:connector-curvature="0"
       inkscape:export-filename="C:\Users\snutecht\Desktop\logo_png2.png"
       inkscape:export-xdpi="87.724617"
       inkscape:export-ydpi="87.724617" />
    <path
       style="fill:#000000;fill-opacity:1;stroke:none"
       d="m 222.14732,665.41071 -4.46875,4.09375 -4.375,40.8125 4.09375,-2.5 0.28125,-7.6875 3.46875,-2.0625 1.625,16.53125 3.65625,-2.875 -4.28125,-46.3125 z m -2.5,11.25 1.59375,14.8125 -3.90625,2.3125 2.3125,-17.125 z"
       id="path3794"
       inkscape:connector-curvature="0"
       inkscape:export-filename="C:\Users\snutecht\Desktop\logo_png2.png"
       inkscape:export-xdpi="87.724617"
       inkscape:export-ydpi="87.724617" />
    <path
       style="fill:#000000;fill-opacity:1;stroke:none"
       d="m 247.5,668.96932 -2.14286,8.57143 c -14.59459,7.83538 -14.63334,11.49751 -15.44643,13.92857 0.11245,1.99129 -0.0833,4.38236 0.0893,6.78572 0.63094,1.63304 2.34928,2.55384 8.39286,-1.69643 l 0.44643,2.94643 c -7.37139,7.22205 -14.17616,2.32561 -13.57143,-1.78572 l 0.53571,-7.05357 C 231.38128,678.23931 238.9771,674.324 247.5,668.96932 z"
       id="path3799"
       inkscape:connector-curvature="0"
       sodipodi:nodetypes="ccccccccc"
       inkscape:export-filename="C:\Users\snutecht\Desktop\logo_png2.png"
       inkscape:export-xdpi="87.724617"
       inkscape:export-ydpi="87.724617" />
    <path
       style="fill:#000000;stroke:none;stroke-width:1px;stroke-linecap:butt;stroke-linejoin:miter;stroke-opacity:1;fill-opacity:1"
       d="m 240.80357,686.0229 0,20.80357 16.875,-9.55357 0.17857,-4.55358 -12.41071,6.33929 -0.0893,-2.58929 7.32143,-4.01785 0.26786,-2.5 -7.67857,3.39285 0,-4.73214 12.05357,-5.89286 -0.26786,-5.35714 z"
       id="path3801"
       inkscape:connector-curvature="0"
       inkscape:export-filename="C:\Users\snutecht\Desktop\logo_png2.png"
       inkscape:export-xdpi="87.724617"
       inkscape:export-ydpi="87.724617" />
    <path
       style="fill:#000000;stroke:none;stroke-width:1px;stroke-linecap:butt;stroke-linejoin:miter;stroke-opacity:1;fill-opacity:1"
       d="m 268.83929,695.21932 -0.17858,-6.16071 13.57143,-5.53571 -1.96428,20.89285 -3.66072,2.85714 c 0.0893,-2.85136 -0.35714,-3.15476 -0.26785,-5.08928 -9.65337,14.67045 -14.70491,5.56092 -15.95553,-5.46969 -0.51867,-4.57477 0.15892,-10.08675 0.15196,-13.45888 1.56018,-13.70341 19.614,-46.70768 22.85714,-22.5 0.29767,-2.35119 0.54702,-4.70238 1.07143,-7.05357 l 10.44643,-7.05357 c -5.04195,8.80491 -8.3682,22.9714 -15.17857,26.24999 4.08362,-29.88941 -11.68719,-3.42304 -14.01786,8.92857 l -0.35715,17.67858 c 0.19758,2.2467 0.66922,4.27415 3.21429,4.64286 4.47816,-1.03783 8.26081,-6.15045 9.19643,-14.01786 z"
       id="path3803"
       inkscape:connector-curvature="0"
       sodipodi:nodetypes="ccccccscccccccccc"
       inkscape:export-filename="C:\Users\snutecht\Desktop\logo_png2.png"
       inkscape:export-xdpi="87.724617"
       inkscape:export-ydpi="87.724617" />
    <path
       style="fill:#000000;stroke:none;stroke-width:1px;stroke-linecap:butt;stroke-linejoin:miter;stroke-opacity:1;fill-opacity:1"
       d="m 293.125,672.45147 c 1.70821,7.88969 -13.05019,16.08198 -5.08928,24.46428 6.90353,-3.80821 6.76829,-9.60895 8.39285,-16.69643 l -4.10714,2.32143 4.28571,-7.05357 2.85715,0.89286 c 0.3048,10.51606 -2.80324,20.02388 -8.83929,23.39286 l -4.10714,-0.17858 c -2.30613,-1.32079 -2.24837,-3.23255 -2.76786,-5 -0.96445,-9.17002 4.50648,-16.15689 9.375,-22.14285 z"
       id="path3805"
       inkscape:connector-curvature="0"
       sodipodi:nodetypes="cccccccccc"
       inkscape:export-filename="C:\Users\snutecht\Desktop\logo_png2.png"
       inkscape:export-xdpi="87.724617"
       inkscape:export-ydpi="87.724617" />
    <path
       inkscape:connector-curvature="0"
       id="path3807"
       d="m 310.14732,657.41071 -4.46875,4.09375 -4.375,40.8125 4.09375,-2.5 0.28125,-7.6875 3.46875,-2.0625 1.625,16.53125 3.65625,-2.875 -4.28125,-46.3125 z m -2.5,11.25 1.59375,14.8125 -3.90625,2.3125 2.3125,-17.125 z"
       style="fill:#000000;fill-opacity:1;stroke:none"
       inkscape:export-filename="C:\Users\snutecht\Desktop\logo_png2.png"
       inkscape:export-xdpi="87.724617"
       inkscape:export-ydpi="87.724617" />
    <path
       style="fill:#000000;stroke:none;stroke-width:1px;stroke-linecap:butt;stroke-linejoin:miter;stroke-opacity:1;fill-opacity:1"
       d="m 345.26786,653.07647 -32.5,11.07143 0.0893,3.21428 10.26786,-2.94643 -4.28571,22.94644 -1.07143,15.17856 6.16071,-3.92857 3.48215,-34.46428 13.83928,-4.19643 z"
       id="path3809"
       inkscape:connector-curvature="0"
       sodipodi:nodetypes="cccccccccc"
       inkscape:export-filename="C:\Users\snutecht\Desktop\logo_png2.png"
       inkscape:export-xdpi="87.724617"
       inkscape:export-ydpi="87.724617" />
    <path
       style="fill:#000000;stroke:none;stroke-width:1px;stroke-linecap:butt;stroke-linejoin:miter;stroke-opacity:1;fill-opacity:1"
       d="m 341.42857,673.29968 0.17857,-3.57143 c -9.60393,5.22342 -11.41532,12.0382 0.84822,12.76786 0.25657,3.09835 0.18377,4.54982 0.22321,6.5625 -4.11165,7.20992 -10.04565,10.76385 -10.9375,10.3125 -2.23268,-0.0893 -3.98916,-0.17857 -5.89285,-0.26786 -0.24622,-1.66667 -0.85846,-3.33333 -0.22322,-5 l 2.67857,-2.32143 c -0.10878,1.08006 -0.8199,2.05061 0.26786,3.34822 0.4429,0.75615 2.15851,0.36688 3.75,0.0893 3.30749,-2.2041 4.53334,-2.18192 7.05357,-9.37499 -2.71151,-1.29518 -0.36422,-0.2505 -7.59106,-2.52146 -0.75451,-0.23709 -1.44754,-0.29127 -2.18572,-0.96069 -1.75539,-8.20794 6.27644,-13.81286 11.02678,-15.84821 l 4.86607,-0.0893 c -0.34937,2.58938 -0.5871,5.21184 -4.0625,6.87499 z"
       id="path3813"
       inkscape:connector-curvature="0"
       sodipodi:nodetypes="cccccccccccscccc"
       inkscape:export-filename="C:\Users\snutecht\Desktop\logo_png2.png"
       inkscape:export-xdpi="87.724617"
       inkscape:export-ydpi="87.724617" />
    <path
       style="fill:#000000;stroke:none;stroke-width:1px;stroke-linecap:butt;stroke-linejoin:miter;stroke-opacity:1;fill-opacity:1"
       d="m 198.75,726.29075 4.375,-3.125 -0.40179,15.625 -2.85714,1.74108 c -2.34997,-6.06301 -5.08161,-9.28109 -7.23214,-3.70536 l 0,9.19643 c 0.37594,3.03415 2.95598,4.54237 4.73214,6.60714 0.56635,-0.32123 1.42463,-0.39217 2.09821,-1.78572 0.27855,1.03358 0.82985,1.89653 0.44643,3.125 -1.05979,0.81169 -0.16683,0.41932 -2.99107,1.47322 l -1.29464,0.0893 c -4.21249,-2.3219 -6.11706,-5.60408 -6.69643,-9.91071 l -0.22322,-9.375 c 2.62225,-6.34131 4.91729,-10.10046 10.04465,-4.55357 z"
       id="path3815"
       inkscape:connector-curvature="0"
       sodipodi:nodetypes="ccccccccccccccc"
       inkscape:export-filename="C:\Users\snutecht\Desktop\logo_png2.png"
       inkscape:export-xdpi="87.724617"
       inkscape:export-ydpi="87.724617" />
    <path
       style="fill:#000000;stroke:none;stroke-width:1px;stroke-linecap:butt;stroke-linejoin:miter;stroke-opacity:1;fill-opacity:1"
       d="M 205.71875 738.5625 L 202.84375 739.3125 C 200.03631 743.16084 200.15389 746.10695 200.4375 750.875 C 201.74539 752.12934 202.94991 752.92248 204.65625 753.3125 L 207.40625 750.4375 L 207.59375 740.71875 L 205.71875 738.5625 z M 205.71875 741.0625 L 205.84375 749.375 L 204.40625 751.5625 L 202.9375 751.03125 L 201.90625 748.625 L 201.96875 744.3125 L 203.40625 741.8125 L 205.71875 741.0625 z "
       id="path3817"
       inkscape:export-filename="C:\Users\snutecht\Desktop\logo_png2.png"
       inkscape:export-xdpi="87.724617"
       inkscape:export-ydpi="87.724617" />
    <path
       style="fill:#000000;stroke:none;stroke-width:1px;stroke-linecap:butt;stroke-linejoin:miter;stroke-opacity:1;fill-opacity:1"
       d="M 214.34375 728.4375 L 207.90625 731.4375 L 207.8125 733.4375 L 209.78125 733.75 L 208.46875 750.53125 L 206.875 751.90625 L 207 754.5625 L 212.53125 752.90625 L 212.21875 750.5625 L 210.5 750.65625 L 210.34375 748.34375 L 213.4375 748.25 L 214.59375 752.53125 L 213.15625 753.125 L 213.125 756.34375 L 217.40625 754.15625 L 217.0625 751.375 L 216.21875 751.46875 L 212.9375 731.96875 L 214.46875 731.8125 L 214.34375 728.4375 z M 211.53125 737.09375 C 212.26644 739.49787 213.2231 741.76465 213.40625 744.5 L 210.5 744.5625 L 211.53125 737.09375 z "
       id="path3822"
       inkscape:export-filename="C:\Users\snutecht\Desktop\logo_png2.png"
       inkscape:export-xdpi="87.724617"
       inkscape:export-ydpi="87.724617" />
    <path
       style="fill:#000000;stroke:none;stroke-width:1px;stroke-linecap:butt;stroke-linejoin:miter;stroke-opacity:1;fill-opacity:1"
       d="m 222.1875,731.91575 1.83036,0.0447 0.26785,4.41964 c -9.38068,0.035 -5.70035,3.60893 -1.65172,5.75881 3.26081,1.73153 5.80631,5.34635 -2.41078,6.25007 l -0.0893,1.83035 -2.27679,0.0893 0.0893,-4.77679 1.5625,0.35715 0.9375,0.71428 c 6.03972,-1.02688 -0.85182,-3.56953 -3.97321,-5.40178 -1.27568,-2.45325 0.90476,-7.70541 3.57143,-7.54464 l 1.51785,0.40178 z"
       id="path3827"
       inkscape:connector-curvature="0"
       sodipodi:nodetypes="cccscccccccccc"
       inkscape:export-filename="C:\Users\snutecht\Desktop\logo_png2.png"
       inkscape:export-xdpi="87.724617"
       inkscape:export-ydpi="87.724617" />
    <path
       style="fill:#000000;fill-opacity:1;stroke:none"
       d="m 220.05357,727.18361 18.66072,-2.09822 -1.11607,3.92857 -7.85715,0.26786 0.40179,19.24107 1.875,0.49107 -0.17857,3.08036 -7.54464,0.44643 0.0446,-2.67857 2.45536,-1.20536 0.26785,-18.39286 -7.63393,0.17857 z"
       id="path3831"
       inkscape:connector-curvature="0"
       inkscape:export-filename="C:\Users\snutecht\Desktop\logo_png2.png"
       inkscape:export-xdpi="87.724617"
       inkscape:export-ydpi="87.724617" />
    <path
       sodipodi:nodetypes="ccccccccccccccc"
       inkscape:connector-curvature="0"
       id="path3848"
       d="m 274.82143,720.75504 4.375,-3.125 -0.40179,15.625 -2.85714,1.74108 c -2.34997,-6.06301 -5.08161,-9.28109 -7.23214,-3.70536 l 0,9.19643 c 0.37594,3.03415 2.95598,4.54237 4.73214,6.60714 0.56635,-0.32123 1.42463,-0.39217 2.09821,-1.78572 0.27855,1.03358 0.82985,1.89653 0.44643,3.125 -1.05979,0.81169 -0.16683,0.41932 -2.99107,1.47322 l -1.29464,0.0893 c -4.21249,-2.3219 -6.11706,-5.60408 -6.69643,-9.91071 l -0.22322,-9.375 c 2.62225,-6.34131 4.91729,-10.10046 10.04465,-4.55357 z"
       style="fill:#000000;fill-opacity:1;stroke:none"
       inkscape:export-filename="C:\Users\snutecht\Desktop\logo_png2.png"
       inkscape:export-xdpi="87.724617"
       inkscape:export-ydpi="87.724617" />
    <path
       id="path3850"
       d="m 281.79018,733.02679 -2.875,0.75 c -2.80744,3.84834 -2.68986,6.79445 -2.40625,11.5625 1.30789,1.25434 2.51241,2.04748 4.21875,2.4375 l 2.75,-2.875 0.1875,-9.71875 -1.875,-2.15625 z m 0,2.5 0.125,8.3125 -1.4375,2.1875 -1.46875,-0.53125 -1.03125,-2.40625 0.0625,-4.3125 1.4375,-2.5 2.3125,-0.75 z"
       style="fill:#000000;fill-opacity:1;stroke:none"
       inkscape:connector-curvature="0"
       inkscape:export-filename="C:\Users\snutecht\Desktop\logo_png2.png"
       inkscape:export-xdpi="87.724617"
       inkscape:export-ydpi="87.724617" />
    <path
       id="path3852"
       d="m 290.41518,722.90179 -6.4375,3 -0.0937,2 1.96875,0.3125 -1.3125,16.78125 -1.59375,1.375 0.125,2.65625 5.53125,-1.65625 -0.3125,-2.34375 -1.71875,0.0937 -0.15625,-2.3125 3.09375,-0.0937 1.15625,4.28125 -1.4375,0.59375 -0.0312,3.21875 4.28125,-2.1875 -0.34375,-2.78125 -0.84375,0.0937 -3.28125,-19.5 1.53125,-0.15625 -0.125,-3.375 z m -2.8125,8.65625 c 0.73519,2.40412 1.69185,4.6709 1.875,7.40625 l -2.90625,0.0625 1.03125,-7.46875 z"
       style="fill:#000000;fill-opacity:1;stroke:none"
       inkscape:connector-curvature="0"
       inkscape:export-filename="C:\Users\snutecht\Desktop\logo_png2.png"
       inkscape:export-xdpi="87.724617"
       inkscape:export-ydpi="87.724617" />
    <path
       sodipodi:nodetypes="cccscccccccccc"
       inkscape:connector-curvature="0"
       id="path3854"
       d="m 298.25893,726.38004 1.83036,0.0447 0.26785,4.41964 c -9.38068,0.035 -5.70035,3.60893 -1.65172,5.75881 3.26081,1.73153 5.80631,5.34635 -2.41078,6.25007 l -0.0893,1.83035 -2.27679,0.0893 0.0893,-4.77679 1.5625,0.35715 0.9375,0.71428 c 6.03972,-1.02688 -0.85182,-3.56953 -3.97321,-5.40178 -1.27568,-2.45325 0.90476,-7.70541 3.57143,-7.54464 l 1.51785,0.40178 z"
       style="fill:#000000;fill-opacity:1;stroke:none"
       inkscape:export-filename="C:\Users\snutecht\Desktop\logo_png2.png"
       inkscape:export-xdpi="87.724617"
       inkscape:export-ydpi="87.724617" />
    <path
       inkscape:connector-curvature="0"
       id="path3856"
       d="m 296.125,721.6479 18.66072,-2.09822 -1.11607,3.92857 -7.85715,0.26786 0.40179,19.24107 1.875,0.49107 -0.17857,3.08036 -7.54464,0.44643 0.0446,-2.67857 2.45536,-1.20536 0.26785,-18.39286 -7.63393,0.17857 z"
       style="fill:#000000;fill-opacity:1;stroke:none"
       inkscape:export-filename="C:\Users\snutecht\Desktop\logo_png2.png"
       inkscape:export-xdpi="87.724617"
       inkscape:export-ydpi="87.724617" />
    <path
       style="fill:#000000;stroke:#000000;stroke-width:1px;stroke-linecap:butt;stroke-linejoin:miter;stroke-opacity:1;fill-opacity:1"
       d="m 246.38393,726.73718 c 0,0.3125 -0.0446,7.36607 -0.0446,7.36607 l -2.5,1.02679 0,2.05357 2.14286,-0.26786 -0.17858,6.16072 1.78572,0 0.0446,-8.30357 2.09822,-0.58036 -0.44643,-1.69643 -1.96429,0.58036 0.40179,-6.5625 -1.78572,0.22321 z"
       id="path3858"
       inkscape:connector-curvature="0"
       inkscape:export-filename="C:\Users\snutecht\Desktop\logo_png2.png"
       inkscape:export-xdpi="87.724617"
       inkscape:export-ydpi="87.724617" />
    <path
       sodipodi:nodetypes="cccccccccc"
       inkscape:connector-curvature="0"
       id="path3865"
       d="m 251.99744,732.45147 c 0.47623,2.52676 -3.63822,5.15044 -1.41882,7.83497 1.92461,-1.21963 1.88691,-3.07738 2.33982,-5.34723 l -1.14502,0.74347 1.1948,-2.25899 0.79653,0.28595 c 0.085,3.36789 -0.7815,6.41288 -2.46427,7.49183 l -1.14502,-0.0572 c -0.64292,-0.423 -0.62681,-1.03526 -0.77164,-1.60131 -0.26888,-2.9368 1.25635,-5.17443 2.61362,-7.0915 z"
       style="fill:#000000;fill-opacity:1;stroke:#000000;stroke-opacity:1"
       inkscape:export-filename="C:\Users\snutecht\Desktop\logo_png2.png"
       inkscape:export-xdpi="87.724617"
       inkscape:export-ydpi="87.724617" />
  </g>
</svg>
