<?xml version="1.0" encoding="UTF-8" standalone="no"?>
<!-- Created with Inkscape (http://www.inkscape.org/) -->

<svg
   xmlns:dc="http://purl.org/dc/elements/1.1/"
   xmlns:cc="http://creativecommons.org/ns#"
   xmlns:rdf="http://www.w3.org/1999/02/22-rdf-syntax-ns#"
   xmlns:svg="http://www.w3.org/2000/svg"
   xmlns="http://www.w3.org/2000/svg"
   xmlns:sodipodi="http://sodipodi.sourceforge.net/DTD/sodipodi-0.dtd"
   xmlns:inkscape="http://www.inkscape.org/namespaces/inkscape"
   width="200"
   height="80"
   id="svg2"
   version="1.1"
   inkscape:version="0.48.4 r9939"
   sodipodi:docname="new_logo.svg"
   inkscape:export-filename="/home/quasar/personal/spacegoats/SpaceGoats/demo/static/new_logo.png"
   inkscape:export-xdpi="90"
   inkscape:export-ydpi="90">
  <defs
     id="defs4" />
  <sodipodi:namedview
     id="base"
     pagecolor="#ffffff"
     bordercolor="#666666"
     borderopacity="1.0"
     inkscape:pageopacity="0.0"
     inkscape:pageshadow="2"
     inkscape:zoom="2.3060409"
     inkscape:cx="121.9928"
     inkscape:cy="-41.665868"
     inkscape:document-units="px"
     inkscape:current-layer="layer1"
     showgrid="false"
     inkscape:window-width="1918"
     inkscape:window-height="1177"
     inkscape:window-x="0"
     inkscape:window-y="21"
     inkscape:window-maximized="1"
     fit-margin-top="10.1"
     fit-margin-left="5.4"
     fit-margin-right="3.4"
     fit-margin-bottom="3.8" />
  <metadata
     id="metadata7">
    <rdf:RDF>
      <cc:Work
         rdf:about="">
        <dc:format>image/svg+xml</dc:format>
        <dc:type
           rdf:resource="http://purl.org/dc/dcmitype/StillImage" />
        <dc:title></dc:title>
      </cc:Work>
    </rdf:RDF>
  </metadata>
  <g
     inkscape:label="Layer 1"
     inkscape:groupmode="layer"
     id="layer1"
     transform="translate(-143.1109,-646.14515)">
    <g
       id="g4256"
       transform="matrix(0.8702792,0,0,0.8702792,15.991299,90.442062)">
      <g
         id="g4244">
        <path
           style="fill:#000000;fill-opacity:1;stroke:none"
           d="m 196.78572,672.63004 c 1.09491,0.89643 1.30862,-2.88499 -0.80357,-4.55357 -11.26605,-9.68013 -50.18201,-18.87388 -47.32143,-0.625 26.33913,27.09995 69.76773,38.54825 18.75,37.94643 -4.16187,-1.06349 -17.09963,-3.52123 -6.42857,-8.39286 -2.65377,-1.26481 -9.73696,-1.64648 -8.30357,4.10714 2.7947,3.94225 3.80342,6.38397 17.67857,9.10715 l 14.82142,0 c 3.18559,-1.21724 14.3721,-2.12931 13.03572,-10.98215 -0.18927,-3.87971 -28.64937,-20.30578 -39.91266,-29.70769 -1.84871,-1.54319 -1.76257,-4.13129 -1.42663,-6.09588 0.82191,-3.36211 17.43691,-0.6095 25,1.60714 4.67182,1.15604 8.08588,4.32451 11.60715,7.32144 1.15521,0.35333 0.57195,0.13453 3.30357,0.26785 z"
           id="path3787"
           inkscape:connector-curvature="0"
           sodipodi:nodetypes="cccccccccscccc"
           inkscape:export-filename="C:\Users\snutecht\Desktop\logo_png2.png"
           inkscape:export-xdpi="87.724617"
           inkscape:export-ydpi="87.724617" />
        <path
           style="fill:#000000;fill-opacity:1;stroke:none"
           d="m 189.28125,675.40625 2.0625,4.53125 7.3125,0.5625 1.625,23.125 0.96875,9.375 3.65625,2.5625 -0.875,-22.03125 c 3.6284,-1.29298 6.47214,-1.70368 12.5625,-5.90625 l -0.15625,-5.25 c -9.20221,-6.18625 -18.18655,-6.59536 -27.15625,-6.96875 z m 12.59375,4.375 c 7.3859,1.144 9.50941,3.3879 12.59375,5.4375 -3.57785,3.64281 -8.13309,4.18268 -12.40625,4.8125 0,0 -0.009,-9.80357 -0.1875,-10.25 z"
           id="path3789"
           inkscape:connector-curvature="0"
           inkscape:export-filename="C:\Users\snutecht\Desktop\logo_png2.png"
           inkscape:export-xdpi="87.724617"
           inkscape:export-ydpi="87.724617" />
        <path
           style="fill:#000000;fill-opacity:1;stroke:none"
           d="m 222.14732,665.41071 -4.46875,4.09375 -4.375,40.8125 4.09375,-2.5 0.28125,-7.6875 3.46875,-2.0625 1.625,16.53125 3.65625,-2.875 -4.28125,-46.3125 z m -2.5,11.25 1.59375,14.8125 -3.90625,2.3125 2.3125,-17.125 z"
           id="path3794"
           inkscape:connector-curvature="0"
           inkscape:export-filename="C:\Users\snutecht\Desktop\logo_png2.png"
           inkscape:export-xdpi="87.724617"
           inkscape:export-ydpi="87.724617" />
        <path
           style="fill:#000000;fill-opacity:1;stroke:none"
           d="m 247.5,668.96932 -2.14286,8.57143 c -14.59459,7.83538 -14.63334,11.49751 -15.44643,13.92857 0.11245,1.99129 -0.0833,4.38236 0.0893,6.78572 0.63094,1.63304 2.34928,2.55384 8.39286,-1.69643 l 0.44643,2.94643 c -7.37139,7.22205 -14.17616,2.32561 -13.57143,-1.78572 l 0.53571,-7.05357 C 231.38128,678.23931 238.9771,674.324 247.5,668.96932 z"
           id="path3799"
           inkscape:connector-curvature="0"
           sodipodi:nodetypes="ccccccccc"
           inkscape:export-filename="C:\Users\snutecht\Desktop\logo_png2.png"
           inkscape:export-xdpi="87.724617"
           inkscape:export-ydpi="87.724617" />
        <path
           style="fill:#000000;fill-opacity:1;stroke:none"
           d="m 240.80357,686.0229 0,20.80357 16.875,-9.55357 0.17857,-4.55358 -12.41071,6.33929 -0.0893,-2.58929 7.32143,-4.01785 0.26786,-2.5 -7.67857,3.39285 0,-4.73214 12.05357,-5.89286 -0.26786,-5.35714 z"
           id="path3801"
           inkscape:connector-curvature="0"
           inkscape:export-filename="C:\Users\snutecht\Desktop\logo_png2.png"
           inkscape:export-xdpi="87.724617"
           inkscape:export-ydpi="87.724617" />
        <path
           style="fill:#000000;fill-opacity:1;stroke:none"
           d="m 268.83929,695.21932 -0.17858,-6.16071 13.57143,-5.53571 -1.96428,20.89285 -3.66072,2.85714 c 0.0893,-2.85136 -0.35714,-3.15476 -0.26785,-5.08928 -9.65337,14.67045 -14.70491,5.56092 -15.95553,-5.46969 -0.51867,-4.57477 0.15892,-10.08675 0.15196,-13.45888 1.56018,-13.70341 19.614,-46.70768 22.85714,-22.5 0.29767,-2.35119 0.54702,-4.70238 1.07143,-7.05357 l 10.44643,-7.05357 c -5.04195,8.80491 -8.3682,22.9714 -15.17857,26.24999 4.08362,-29.88941 -11.68719,-3.42304 -14.01786,8.92857 l -0.35715,17.67858 c 0.19758,2.2467 0.66922,4.27415 3.21429,4.64286 4.47816,-1.03783 8.26081,-6.15045 9.19643,-14.01786 z"
           id="path3803"
           inkscape:connector-curvature="0"
           sodipodi:nodetypes="ccccccscccccccccc"
           inkscape:export-filename="C:\Users\snutecht\Desktop\logo_png2.png"
           inkscape:export-xdpi="87.724617"
           inkscape:export-ydpi="87.724617" />
        <path
           style="fill:#000000;fill-opacity:1;stroke:none"
           d="m 293.125,672.45147 c 1.70821,7.88969 -13.05019,16.08198 -5.08928,24.46428 6.90353,-3.80821 6.76829,-9.60895 8.39285,-16.69643 l -4.10714,2.32143 4.28571,-7.05357 2.85715,0.89286 c 0.3048,10.51606 -2.80324,20.02388 -8.83929,23.39286 l -4.10714,-0.17858 c -2.30613,-1.32079 -2.24837,-3.23255 -2.76786,-5 -0.96445,-9.17002 4.50648,-16.15689 9.375,-22.14285 z"
           id="path3805"
           inkscape:connector-curvature="0"
           sodipodi:nodetypes="cccccccccc"
           inkscape:export-filename="C:\Users\snutecht\Desktop\logo_png2.png"
           inkscape:export-xdpi="87.724617"
           inkscape:export-ydpi="87.724617" />
        <path
           inkscape:connector-curvature="0"
           id="path3807"
           d="m 310.14732,657.41071 -4.46875,4.09375 -4.375,40.8125 4.09375,-2.5 0.28125,-7.6875 3.46875,-2.0625 1.625,16.53125 3.65625,-2.875 -4.28125,-46.3125 z m -2.5,11.25 1.59375,14.8125 -3.90625,2.3125 2.3125,-17.125 z"
           style="fill:#000000;fill-opacity:1;stroke:none"
           inkscape:export-filename="C:\Users\snutecht\Desktop\logo_png2.png"
           inkscape:export-xdpi="87.724617"
           inkscape:export-ydpi="87.724617" />
        <path
           style="fill:#000000;fill-opacity:1;stroke:none"
           d="m 345.26786,653.07647 -32.5,11.07143 0.0893,3.21428 10.26786,-2.94643 -4.28571,22.94644 -1.07143,15.17856 6.16071,-3.92857 3.48215,-34.46428 13.83928,-4.19643 z"
           id="path3809"
           inkscape:connector-curvature="0"
           sodipodi:nodetypes="cccccccccc"
           inkscape:export-filename="C:\Users\snutecht\Desktop\logo_png2.png"
           inkscape:export-xdpi="87.724617"
           inkscape:export-ydpi="87.724617" />
        <path
           style="fill:#000000;fill-opacity:1;stroke:none"
           d="m 341.42857,673.29968 0.17857,-3.57143 c -9.60393,5.22342 -11.41532,12.0382 0.84822,12.76786 0.25657,3.09835 0.18377,4.54982 0.22321,6.5625 -4.11165,7.20992 -10.04565,10.76385 -10.9375,10.3125 -2.23268,-0.0893 -3.98916,-0.17857 -5.89285,-0.26786 -0.24622,-1.66667 -0.85846,-3.33333 -0.22322,-5 l 2.67857,-2.32143 c -0.10878,1.08006 -0.8199,2.05061 0.26786,3.34822 0.4429,0.75615 2.15851,0.36688 3.75,0.0893 3.30749,-2.2041 4.53334,-2.18192 7.05357,-9.37499 -2.71151,-1.29518 -0.36422,-0.2505 -7.59106,-2.52146 -0.75451,-0.23709 -1.44754,-0.29127 -2.18572,-0.96069 -1.75539,-8.20794 6.27644,-13.81286 11.02678,-15.84821 l 4.86607,-0.0893 c -0.34937,2.58938 -0.5871,5.21184 -4.0625,6.87499 z"
           id="path3813"
           inkscape:connector-curvature="0"
           sodipodi:nodetypes="cccccccccccscccc"
           inkscape:export-filename="C:\Users\snutecht\Desktop\logo_png2.png"
           inkscape:export-xdpi="87.724617"
           inkscape:export-ydpi="87.724617" />
      </g>
      <g
         id="g4179">
        <path
           style="fill:#000000;fill-opacity:1;stroke:none"
           d="m 284.53672,707.64939 3.35183,-1.52811 -0.30782,7.64054 -2.18895,0.85139 c -1.80039,-2.96479 -3.8932,-4.53841 -5.54079,-1.81191 l 0,4.49701 c 0.28802,1.48368 2.26468,2.22119 3.62546,3.23086 0.43389,-0.15709 1.09145,-0.19178 1.6075,-0.87321 0.21341,0.50541 0.63578,0.92739 0.34203,1.5281 -0.81194,0.39691 -0.12782,0.20505 -2.29157,0.7204 l -0.99186,0.0436 c -3.22733,-1.1354 -4.68648,-2.74037 -5.13037,-4.84629 l -0.17101,-4.58433 c 2.009,-3.10086 3.7673,-4.93907 7.69555,-2.22666 z"
           id="path3815"
           inkscape:connector-curvature="0"
           sodipodi:nodetypes="ccccccccccccccc"
           inkscape:export-filename="C:\Users\snutecht\Desktop\logo_png2.png"
           inkscape:export-xdpi="87.724617"
           inkscape:export-ydpi="87.724617" />
        <path
           style="fill:#000000;fill-opacity:1;stroke:none"
           d="m 289.87572,713.65021 -2.20264,0.36674 c -2.15087,1.88183 -2.0608,3.32245 -1.84351,5.65401 1.00202,0.61337 1.92484,1.00121 3.23213,1.19193 l 2.10687,-1.40587 0.14365,-4.75241 -1.4365,-1.0544 z m 0,1.22248 0.0958,4.06478 -1.10132,1.06967 -1.12526,-0.25977 -0.79007,-1.17665 0.0478,-2.10879 1.10131,-1.22249 1.77169,-0.36675 z"
           id="path3817"
           inkscape:export-filename="C:\Users\snutecht\Desktop\logo_png2.png"
           inkscape:export-xdpi="87.724617"
           inkscape:export-ydpi="87.724617"
           inkscape:connector-curvature="0" />
        <path
           style="fill:#000000;fill-opacity:1;stroke:none"
           d="m 296.48361,708.69914 -4.93198,1.46698 -0.0719,0.97799 1.50833,0.15282 -1.00554,8.20593 -1.22104,0.67237 0.0958,1.29889 4.23768,-0.80989 -0.23941,-1.14608 -1.31679,0.0458 -0.11971,-1.1308 2.37022,-0.0458 0.88584,2.09352 -1.10131,0.29034 -0.0239,1.57394 3.28,-1.06967 -0.26335,-1.36002 -0.64643,0.0458 -2.51388,-9.5354 1.17314,-0.0764 -0.0958,-1.65035 z m -2.15475,4.23286 c 0.56327,1.1756 1.29619,2.28405 1.4365,3.62162 l -2.22657,0.0305 0.79007,-3.65219 z"
           id="path3822"
           inkscape:export-filename="C:\Users\snutecht\Desktop\logo_png2.png"
           inkscape:export-xdpi="87.724617"
           inkscape:export-ydpi="87.724617"
           inkscape:connector-curvature="0" />
        <path
           style="fill:#000000;fill-opacity:1;stroke:none"
           d="m 302.49298,710.39999 1.40231,0.0219 0.2052,2.16117 c -7.18685,0.0171 -4.36723,1.76475 -1.26544,2.81603 2.49822,0.84671 4.44842,2.61434 -1.84698,3.05625 l -0.0684,0.89503 -1.74433,0.0436 0.0684,-2.33583 1.19709,0.17465 0.71825,0.34928 c 4.62723,-0.50214 -0.65261,-1.74548 -3.04401,-2.64144 -0.97734,-1.19963 0.69317,-3.76791 2.73619,-3.68929 l 1.16288,0.19646 z"
           id="path3827"
           inkscape:connector-curvature="0"
           sodipodi:nodetypes="cccscccccccccc"
           inkscape:export-filename="C:\Users\snutecht\Desktop\logo_png2.png"
           inkscape:export-xdpi="87.724617"
           inkscape:export-ydpi="87.724617" />
        <path
           style="fill:#000000;fill-opacity:1;stroke:none"
           d="m 300.85811,708.08599 14.29661,-1.02602 -0.85506,1.92105 -6.01963,0.13098 0.30782,9.40879 1.4365,0.24013 -0.13681,1.50628 -5.78019,0.2183 0.0342,-1.30981 1.88113,-0.58941 0.20521,-8.99402 -5.84861,0.0873 z"
           id="path3831"
           inkscape:connector-curvature="0"
           inkscape:export-filename="C:\Users\snutecht\Desktop\logo_png2.png"
           inkscape:export-xdpi="87.724617"
           inkscape:export-ydpi="87.724617" />
        <path
           sodipodi:nodetypes="ccccccccccccccc"
           inkscape:connector-curvature="0"
           id="path3848"
           d="m 342.81762,704.94245 3.35183,-1.5281 -0.30782,7.64054 -2.18895,0.85138 c -1.80039,-2.96478 -3.89319,-4.53841 -5.54079,-1.8119 l 0,4.497 c 0.28802,1.48368 2.26468,2.2212 3.62545,3.23086 0.4339,-0.15708 1.09146,-0.19177 1.60751,-0.87321 0.2134,0.50542 0.63578,0.9274 0.34203,1.52811 -0.81194,0.39692 -0.12781,0.20505 -2.29156,0.7204 l -0.99187,0.0436 c -3.22733,-1.1354 -4.68649,-2.74037 -5.13036,-4.84629 l -0.17101,-4.58433 c 2.00899,-3.10087 3.7673,-4.93907 7.69554,-2.22667 z"
           style="fill:#000000;fill-opacity:1;stroke:none"
           inkscape:export-filename="C:\Users\snutecht\Desktop\logo_png2.png"
           inkscape:export-xdpi="87.724617"
           inkscape:export-ydpi="87.724617" />
        <path
           id="path3850"
           d="m 348.15661,710.94327 -2.20263,0.36675 c -2.15087,1.88182 -2.06079,3.32246 -1.84351,5.654 1.00202,0.61337 1.92484,1.00121 3.23212,1.19193 l 2.10687,-1.40586 0.14365,-4.75242 -1.4365,-1.0544 z m 0,1.22249 0.0958,4.06477 -1.10131,1.06968 -1.12527,-0.25978 -0.79007,-1.17664 0.0478,-2.10879 1.10132,-1.22249 1.77168,-0.36675 z"
           style="fill:#000000;fill-opacity:1;stroke:none"
           inkscape:connector-curvature="0"
           inkscape:export-filename="C:\Users\snutecht\Desktop\logo_png2.png"
           inkscape:export-xdpi="87.724617"
           inkscape:export-ydpi="87.724617" />
        <path
           id="path3852"
           d="m 354.76452,705.9922 -4.93199,1.46699 -0.0718,0.97799 1.50832,0.15281 -1.00555,8.20594 -1.22102,0.67237 0.0958,1.29889 4.23768,-0.8099 -0.23942,-1.14608 -1.31679,0.0458 -0.11971,-1.13081 2.37023,-0.0458 0.88584,2.0935 -1.10132,0.29035 -0.0239,1.57395 3.28001,-1.06968 -0.26336,-1.36001 -0.64642,0.0458 -2.51388,-9.53539 1.17314,-0.0764 -0.0958,-1.65036 z m -2.15475,4.23287 c 0.56325,1.1756 1.29619,2.28404 1.4365,3.62161 l -2.22658,0.0305 0.79008,-3.65218 z"
           style="fill:#000000;fill-opacity:1;stroke:none"
           inkscape:connector-curvature="0"
           inkscape:export-filename="C:\Users\snutecht\Desktop\logo_png2.png"
           inkscape:export-xdpi="87.724617"
           inkscape:export-ydpi="87.724617" />
        <path
           sodipodi:nodetypes="cccscccccccccc"
           inkscape:connector-curvature="0"
           id="path3854"
           d="m 360.77388,707.69305 1.4023,0.0219 0.20521,2.16118 c -7.18685,0.0171 -4.36723,1.76475 -1.26544,2.81603 2.49822,0.84671 4.44841,2.61433 -1.84698,3.05625 l -0.0684,0.89503 -1.74433,0.0436 0.0684,-2.33583 1.19709,0.17464 0.71826,0.34928 c 4.62722,-0.50213 -0.65261,-1.74548 -3.04402,-2.64144 -0.97734,-1.19962 0.69317,-3.7679 2.7362,-3.68929 l 1.16287,0.19647 z"
           style="fill:#000000;fill-opacity:1;stroke:none"
           inkscape:export-filename="C:\Users\snutecht\Desktop\logo_png2.png"
           inkscape:export-xdpi="87.724617"
           inkscape:export-ydpi="87.724617" />
        <path
           inkscape:connector-curvature="0"
           id="path3856"
           d="m 359.139,705.37906 14.29662,-1.02602 -0.85506,1.92105 -6.01964,0.13098 0.30783,9.40878 1.4365,0.24013 -0.13681,1.50629 -5.7802,0.2183 0.0342,-1.30981 1.88114,-0.58941 0.2052,-8.99401 -5.84861,0.0873 z"
           style="fill:#000000;fill-opacity:1;stroke:none"
           inkscape:export-filename="C:\Users\snutecht\Desktop\logo_png2.png"
           inkscape:export-xdpi="87.724617"
           inkscape:export-ydpi="87.724617" />
        <path
           style="fill:#000000;fill-opacity:1;stroke:#000000;stroke-width:0.7033084px;stroke-linecap:butt;stroke-linejoin:miter;stroke-opacity:1"
           d="m 321.03068,707.86769 c 0,0.15281 -0.0342,3.60197 -0.0342,3.60197 l -1.91533,0.5021 0,1.00418 1.64171,-0.13098 -0.13681,3.01255 1.3681,0 0.0342,-4.0604 1.60752,-0.28379 -0.34202,-0.82954 -1.50491,0.28379 0.30782,-3.20903 -1.3681,0.10915 z"
           id="path3858"
           inkscape:connector-curvature="0"
           inkscape:export-filename="C:\Users\snutecht\Desktop\logo_png2.png"
           inkscape:export-xdpi="87.724617"
           inkscape:export-ydpi="87.724617" />
        <path
           sodipodi:nodetypes="cccccccccc"
           inkscape:connector-curvature="0"
           id="path3865"
           d="m 325.33138,710.66195 c 0.36486,1.23557 -2.78736,2.51853 -1.087,3.83126 1.47451,-0.5964 1.44562,-1.50482 1.79261,-2.61477 l -0.87723,0.36355 0.91537,-1.10463 0.61025,0.13983 c 0.0651,1.64688 -0.59873,3.13586 -1.88795,3.66346 l -0.87724,-0.0279 c -0.49257,-0.20685 -0.48023,-0.50624 -0.59118,-0.78304 -0.206,-1.43608 0.96252,-2.53027 2.00237,-3.4677 z"
           style="fill:#000000;fill-opacity:1;stroke:#000000;stroke-width:0.7033084;stroke-opacity:1"
           inkscape:export-filename="C:\Users\snutecht\Desktop\logo_png2.png"
           inkscape:export-xdpi="87.724617"
           inkscape:export-ydpi="87.724617" />
      </g>
    </g>
    <path
       style="fill:#e30101;fill-opacity:1;stroke:#000000;stroke-width:1;stroke-linecap:butt;stroke-linejoin:miter;stroke-miterlimit:4;stroke-opacity:1;stroke-dasharray:none;marker-start:none"
       d="M 12.96875,130 C 10.416438,130.0128 7.0730281,137.00551 5,146.84375 c -0.87712,4.16248 -1.70988,7.94028 -1.84375,8.375 -0.16892,0.54848 -0.91989,0.23342 -2.5,-1.03125 -6.90209,-5.52409 -35.69646,-14.96594 -37.375,-12.25 -0.40676,0.65813 0.61922,4.75696 1.40625,5.625 0.20952,0.2311 2.29401,0.72503 4.625,1.09375 2.33099,0.36872 4.6255,1.06858 5.125,1.5625 0.77072,0.76221 0.9334,4.45119 1.0625,24.34375 0.08366,12.89213 0.30217,24.024 0.46875,24.75 0.42496,1.85196 1.94764,3.25 3.59375,3.25 l 1.40625,0 -0.3125,-15.65625 c -0.2618,-12.9459 -0.19527,-15.76963 0.5,-16.21875 0.46235,-0.29861 4.79532,-1.90272 9.625,-3.59375 4.82969,-1.69096 9.25403,-3.28114 9.8125,-3.53125 0.78275,-0.35037 0.9619,-0.1972 0.75,0.65625 -0.15125,0.60902 -1.47225,7.20507 -2.9375,14.65625 -2.84714,14.47818 -2.89509,16.42445 -0.21875,16.40625 0.75748,-0.005 1.73389,-0.23197 2.15625,-0.5 1.11082,-0.70511 1.95845,-4.12994 1.96875,-7.96875 0.0049,-1.83373 0.33605,-4.01126 0.75,-4.84375 0.98961,-1.99012 5.10123,-4.05278 6.09375,-3.0625 0.46838,0.46723 0.7999,4.58762 1,12.1875 0.2406,9.13797 0.49171,11.60234 1.1875,12.03125 0.52014,0.3205 1.32818,0.31156 1.96875,-0.0312 2.23261,-1.19486 2.48887,-2.82121 2.09375,-12.625 l -0.375,-9.40625 1.1875,2.21875 c 2.2564,4.20874 8.02223,5.12265 14.375,2.3125 2.24393,-0.99258 2.59375,-1.4024 2.59375,-3 0,-1.01771 -0.07295,-1.84375 -0.15625,-1.84375 -0.08325,0.001 -1.48682,0.70014 -3.125,1.53125 -4.86396,2.46764 -8.6356,1.63659 -9.96875,-2.1875 -0.8325,-2.38809 0.18014,-7.96364 2.03125,-11.15625 2.87481,-4.95823 13.74236,-13.67253 21.125,-16.9375 1.72645,-0.76347 3.47024,-1.76738 3.84375,-2.21875 0.8552,-1.03363 3.74275,-10.93192 3.375,-11.5625 -0.92072,-1.57871 -14.85351,8.68892 -23.1875,17.09375 -6.17682,6.22926 -9.6594,11.02382 -11.1875,15.46875 -0.6927,2.01495 -0.75513,1.66022 -1.125,-5.21875 -0.21881,-4.06943 -0.40625,-13.63286 -0.40625,-21.25 0,-11.90113 -0.1377,-13.91185 -0.9375,-14.21875 -0.162405,-0.0623 -0.329846,-0.0946 -0.5,-0.0937 z M -19.125,149.375 c 2.5313,-0.36164 19,8.44463 19,10.15625 0,1.03423 -3.42564,2.42911 -10.46875,4.28125 -3.73368,0.98186 -7.51892,1.8125 -8.40625,1.8125 -1.56641,0.004 -1.61902,-0.1321 -2.03125,-4.53125 -0.23352,-2.49205 -0.1946,-6.11105 0.09375,-8.03125 0.43155,-2.87371 0.77172,-3.5388 1.8125,-3.6875 z m 27.78125,0.8125 0.375,4.53125 C 9.23747,157.21624 9.4564,161.44466 9.5,164.125 l 0.0625,4.875 -2,0.71875 c -1.10586,0.3999 -2.28952,0.75 -2.625,0.75 -0.79405,0 0.49221,-8.29787 2.34375,-15.15625 l 1.375,-5.125 z"
       id="path4171"
       transform="translate(143.1109,642.97647)"
       inkscape:connector-curvature="0" />
    <path
       style="fill:#e30101;fill-opacity:1;stroke:#000000;stroke-width:1;stroke-linecap:butt;stroke-linejoin:miter;stroke-miterlimit:4;stroke-opacity:1;stroke-dasharray:none;marker-start:none"
       d="m 219.26302,843.08901 c -2.15081,-2.30247 -4.13106,-10.27361 -4.63232,-18.64677 -0.90836,-15.17161 4.76098,-33.83885 14.86434,-48.94361 6.30039,-9.4192 12.80901,-15.33629 16.8745,-15.34095 3.48153,-0.006 5.58953,3.63544 5.59704,9.66338 0,2.46165 0.0886,2.61761 0.95855,1.74776 0.52535,-0.52535 1.85819,-3.24014 2.96187,-6.03291 l 2.00671,-5.07774 6.27128,-3.72523 c 3.4492,-2.04879 6.3498,-3.65045 6.44576,-3.55909 0.096,0.0913 -3.89275,7.62537 -8.86376,16.74239 -6.87024,12.60019 -9.51135,16.90314 -11.01081,17.93864 -2.60417,1.79844 -3.88113,1.79844 -3.3447,0 0.22347,-0.74925 0.5661,-4.28751 0.76142,-7.86277 0.41558,-7.60781 -0.62883,-11.69098 -3.15229,-12.32434 -1.87527,-0.47062 -2.64419,0.0394 -6.01723,3.99126 -12.61617,14.78103 -19.5406,34.63962 -19.00339,54.49972 0.19944,7.3732 0.35934,8.37644 1.61602,10.14139 1.55353,2.18162 3.35493,2.50917 6.0346,1.09708 2.19967,-1.15914 7.47273,-6.69225 9.49361,-9.96187 1.75702,-2.84272 4.77363,-10.34869 4.33528,-10.78704 -0.65655,-0.65655 -5.77147,1.34683 -8.95064,3.50575 -1.92243,1.30548 -4.18791,2.63693 -5.03434,2.95878 -1.96015,0.7452 -2.013,-0.16801 -0.30278,-5.23219 l 1.23621,-3.66057 9.54277,-3.41971 c 5.24861,-1.88084 9.82643,-3.41966 10.17299,-3.41966 0.37151,0 -0.65261,6.36337 -2.49585,15.50727 l -3.12595,15.50733 -2.82601,2.05078 c -1.55432,1.12796 -2.96914,2.05085 -3.14399,2.05085 -0.30697,0 0.0557,-3.53935 0.68186,-6.65997 0.24593,-1.22526 -0.47619,-0.7257 -3.79001,2.62167 -6.6472,6.71446 -10.91134,8.10882 -14.16074,4.63037 z"
       id="path4165"
       inkscape:connector-curvature="0" />
    <path
       style="fill:#e30101;fill-opacity:1;stroke:#000000;stroke-width:1;stroke-linecap:butt;stroke-linejoin:miter;stroke-miterlimit:4;stroke-opacity:1;stroke-dasharray:none;marker-start:none"
       d="m 180.88534,832.96107 c 0.20192,-2.24774 0.81681,-8.96893 1.3665,-14.93596 l 0.9993,-10.8491 11.50359,-5.00885 c 6.32698,-2.7548 11.98039,-5.02464 12.56314,-5.04396 1.32001,-0.0436 1.39423,1.79959 0.16789,4.17102 -1.06608,2.06163 -4.8085,3.98824 -10.68127,5.49884 -2.33825,0.60146 -5.18224,1.72899 -6.31995,2.50561 -2.92185,1.99454 -4.18101,6.19892 -2.69051,8.98394 0.57228,1.06923 0.94554,0.97817 6.43971,-1.57188 3.20775,-1.4888 5.96413,-2.57511 6.12524,-2.414 0.16117,0.16118 0.12684,0.95498 -0.0762,1.76405 -0.28136,1.12093 -1.34338,1.87581 -4.46225,3.17172 -5.22202,2.1697 -7.21263,3.54323 -8.36505,5.77184 -1.00353,1.94053 -0.74192,2.96175 0.75864,2.96175 0.52583,0 4.82133,-1.77095 9.54549,-3.93544 4.72417,-2.16449 8.9096,-3.93544 9.3009,-3.93544 0.77086,0 0.94208,1.72172 0.32991,3.31715 -0.35019,0.91254 -24.85,13.63551 -26.25707,13.63551 -0.39209,0 -0.48206,-1.4819 -0.24799,-4.0868 z"
       id="path4163"
       inkscape:connector-curvature="0" />
    <path
       style="fill:#e30101;fill-opacity:1;stroke:#000000;stroke-width:1;stroke-linecap:butt;stroke-linejoin:miter;stroke-miterlimit:4;stroke-opacity:1;stroke-dasharray:none;marker-start:none"
       d="m 81.837922,834.25147 c -10.0029,-1.25316 -22.54717,-4.51776 -28.05514,-7.30121 -3.58302,-1.81066 -7.98665,-6.10084 -8.38132,-8.16543 -0.80772,-4.22533 2.10639,-6.27146 8.86187,-6.22247 6.79832,0.0496 8.61919,1.16604 2.70925,1.66148 -4.85141,0.40674 -6.38512,1.32243 -5.72081,3.41547 0.55936,1.76235 4.51971,4.55022 8.70219,6.12579 8.93018,3.36413 28.65743,5.64384 36.74452,4.24628 4.940128,-0.85369 9.191768,-3.10954 9.703508,-5.14847 0.88743,-3.53578 -2.23043,-6.57454 -23.353158,-22.76058 -24.00083,-18.39146 -29.99863,-23.32904 -33.31074,-27.42244 -3.8178,-4.71835 -5.10149,-7.35903 -5.05822,-10.40537 0.10485,-7.38179 6.4353,-10.59541 20.8714,-10.59541 19.73956,0 44.309408,9.78477 50.754128,20.21254 1.61161,2.60768 1.65,5.56743 0.0831,6.40605 -1.71347,0.91701 -6.40799,0.76492 -8.93127,-0.28941 -2.82111,-1.17869 -2.42312,-1.5324 1.01535,-0.90225 3.11141,0.57022 3.63795,0.39088 3.63795,-1.23869 0,-2.17606 -10.68227,-8.88998 -20.223138,-12.71038 -9.14065,-3.6602 -15.96751,-5.11649 -23.97487,-5.11425 -5.8758,0 -7.41114,0.20845 -9.83542,1.3246 -4.04566,1.86268 -4.70394,3.56951 -2.69729,6.99358 2.18831,3.73407 12.25791,13.20443 20.76195,19.52644 7.80103,5.79939 16.25961,12.5948 26.281538,21.114 14.81726,12.59552 16.80677,15.28313 14.13606,19.09608 -1.254,1.79032 -9.66544,5.77493 -14.79899,7.01035 -3.910548,0.94118 -15.999718,1.63515 -19.922448,1.1437 z"
       id="path4161"
       inkscape:connector-curvature="0" />
    <path
       style="fill:#e30101;fill-opacity:1;stroke:#000000;stroke-width:1;stroke-linecap:butt;stroke-linejoin:miter;stroke-miterlimit:4;stroke-opacity:1;stroke-dasharray:none;marker-start:none"
       d="m 299.73786,832.40155 c 1.16114,-8.34301 6.63146,-30.07633 12.16638,-48.33658 1.44055,-4.7525 1.97063,-7.37387 1.57169,-7.7728 -0.39887,-0.39893 -3.12334,0.0406 -8.0783,1.30227 -10.16343,2.58849 -10.48595,2.55931 -8.46653,-0.76572 0.90394,-1.48838 2.0072,-2.03256 7.11086,-3.50762 14.03571,-4.05653 44.88102,-11.18864 45.53987,-10.52973 0.48745,0.48745 -0.97332,2.49041 -3.88306,5.32441 l -2.92143,2.84532 -10.86024,1.82581 c -7.84811,1.31946 -11.15431,2.12556 -11.92051,2.90647 -1.07595,1.09665 -5.97599,18.04762 -7.13816,24.69331 -1.00723,5.76003 -2.33523,15.91715 -2.77061,21.19082 -0.61659,7.46929 -0.95746,8.1308 -5.61557,10.89814 -2.24211,1.332 -4.31705,2.52468 -4.611,2.65043 -0.29861,0.12769 -0.3531,-1.07419 -0.12339,-2.72453 z"
       id="path4159"
       inkscape:connector-curvature="0" />
    <path
       style="fill:#e30101;fill-opacity:1;stroke:#000000;stroke-width:1;stroke-linecap:butt;stroke-linejoin:miter;stroke-miterlimit:4;stroke-opacity:1;stroke-dasharray:none;marker-start:none"
       d="m 253.48223,836.85398 c -1.71216,-1.71215 -2.87542,-5.55992 -2.87542,-9.51117 0,-8.46331 6.55505,-21.26699 13.84324,-27.03937 4.03123,-3.19279 3.21641,-0.63948 -2.26348,7.09287 -2.62209,3.69992 -5.36098,7.98973 -6.08637,9.53303 -2.86463,6.09418 -3.03973,13.35428 -0.39633,16.42749 1.30167,1.51321 1.5054,1.5631 3.31837,0.81209 4.58236,-1.89803 10.55981,-11.31989 13.02442,-20.52943 1.76798,-6.60639 1.37626,-7.20324 -3.0321,-4.61972 -3.20981,1.88102 -3.03005,1.09369 0.63282,-2.77176 2.88086,-3.04016 4.91978,-4.42404 5.75633,-3.90698 0.34766,0.21487 0.6321,1.94665 0.6321,3.84843 0,8.113 -6.02619,22.45205 -12.03082,28.62663 -3.23203,3.32351 -3.65542,3.56581 -6.23126,3.56581 -2.14748,0 -3.10427,-0.34062 -4.2915,-1.52792 z"
       id="path4157"
       inkscape:connector-curvature="0" />
    <path
       style="fill:#e30101;fill-opacity:1;stroke:#000000;stroke-width:1;stroke-linecap:butt;stroke-linejoin:miter;stroke-miterlimit:4;stroke-opacity:1;stroke-dasharray:none;marker-start:none"
       d="m 320.50051,832.58169 c -2.62076,-0.47848 -3.18189,-1.36541 -2.87626,-4.54615 0.1863,-1.93884 0.75179,-3.42081 1.68394,-4.41303 1.89162,-2.01349 2.40322,-1.88283 2.40322,0.61369 0,1.75636 0.25829,2.17236 1.5502,2.49664 2.47951,0.62229 6.28938,-0.15033 8.50122,-1.72408 3.00068,-2.13507 8.11215,-8.74933 8.11215,-10.49727 0,-1.83022 -2.56978,-3.51701 -6.9119,-4.53684 -5.82052,-1.36711 -8.83482,-3.91322 -8.82417,-7.45348 0.0212,-6.94235 13.66003,-18.72234 21.778,-18.8094 2.6121,-0.0279 2.74536,0.0545 2.91701,1.80655 0.11322,1.15496 -0.33845,2.60508 -1.21781,3.90989 -1.49607,2.22001 -6.47065,6.32189 -7.01132,5.78128 -0.17921,-0.17921 0.67308,-1.77628 1.89398,-3.54898 1.22089,-1.7727 2.21983,-3.40748 2.21983,-3.63283 0,-0.81821 -2.49925,-0.3798 -5.30431,0.93046 -5.32671,2.48804 -10.43745,8.92194 -10.43745,13.13964 0,2.38809 2.15577,3.79673 8.00335,5.22978 4.98929,1.22265 7.73841,3.25182 7.73841,5.71165 0,2.09928 -2.86004,7.63996 -5.78831,11.21352 -4.59266,5.60473 -12.86779,9.34455 -18.42978,8.32896 z"
       id="path4153"
       inkscape:connector-curvature="0" />
    <path
       id="path4177"
       d="m 291.58014,785.89301 c -1.92266,0.01 -4.44125,5.33983 -6.00286,12.83887 -1.37193,7.44692 -2.12695,8.98139 -2.75425,13.24381 -0.73931,3.72348 -1.10905,5.49195 -2.21282,11.17149 -2.14475,11.03575 -2.18087,12.51926 -0.16479,12.50539 0.57061,-0.004 1.30614,-0.17681 1.62431,-0.38111 0.83678,-0.53746 1.4753,-3.14798 1.48306,-6.07405 0.004,-1.39773 0.25314,-3.05752 0.56497,-3.69207 0.74547,-1.51694 3.84276,-3.08917 4.59042,-2.33434 0.35283,0.35613 0.60257,3.49683 0.7533,9.28972 0.18124,6.96527 0.37041,8.84369 0.89454,9.17062 0.39183,0.2443 1.00052,0.23748 1.48306,-0.0238 1.68183,-0.91076 1.87487,-2.15042 1.57722,-9.6232 l -0.28248,-7.16976 c -0.14399,-9.36822 -0.46308,-19.36619 -0.47082,-28.01209 0,-9.07144 -0.10372,-10.60408 -0.70621,-10.838 -0.12235,-0.0475 -0.24848,-0.0721 -0.37665,-0.0714 z m -3.24861,15.38759 0.28249,3.45387 c 0.15534,1.90367 0.32026,5.12672 0.35311,7.16976 l 0.0471,3.71589 -1.5066,0.54785 c -0.83304,0.30482 -1.7247,0.57168 -1.97741,0.57168 -0.59816,0 0.37078,-6.32492 1.76554,-11.5526 z"
       style="fill:#e30101;fill-opacity:1;stroke:#000000;stroke-width:1;stroke-linecap:butt;stroke-linejoin:miter;stroke-miterlimit:4;stroke-opacity:1;stroke-dasharray:none;marker-start:none"
       inkscape:connector-curvature="0"
       sodipodi:nodetypes="cccscccccscccccccccccccscc" />
    <g
       id="g4193"
       transform="translate(-21.302698,136.77157)">
      <path
         style="fill:#000000;fill-opacity:1;stroke:none"
         d="m 284.53672,707.64939 3.35183,-1.52811 -0.30782,7.64054 -2.18895,0.85139 c -1.80039,-2.96479 -3.8932,-4.53841 -5.54079,-1.81191 l 0,4.49701 c 0.28802,1.48368 2.26468,2.22119 3.62546,3.23086 0.43389,-0.15709 1.09145,-0.19178 1.6075,-0.87321 0.21341,0.50541 0.63578,0.92739 0.34203,1.5281 -0.81194,0.39691 -0.12782,0.20505 -2.29157,0.7204 l -0.99186,0.0436 c -3.22733,-1.1354 -4.68648,-2.74037 -5.13037,-4.84629 l -0.17101,-4.58433 c 2.009,-3.10086 3.7673,-4.93907 7.69555,-2.22666 z"
         id="path4195"
         inkscape:connector-curvature="0"
         sodipodi:nodetypes="ccccccccccccccc"
         inkscape:export-filename="C:\Users\snutecht\Desktop\logo_png2.png"
         inkscape:export-xdpi="87.724617"
         inkscape:export-ydpi="87.724617" />
      <path
         style="fill:#000000;fill-opacity:1;stroke:none"
         d="m 289.87572,713.65021 -2.20264,0.36674 c -2.15087,1.88183 -2.0608,3.32245 -1.84351,5.65401 1.00202,0.61337 1.92484,1.00121 3.23213,1.19193 l 2.10687,-1.40587 0.14365,-4.75241 -1.4365,-1.0544 z m 0,1.22248 0.0958,4.06478 -1.10132,1.06967 -1.12526,-0.25977 -0.79007,-1.17665 0.0478,-2.10879 1.10131,-1.22249 1.77169,-0.36675 z"
         id="path4197"
         inkscape:export-filename="C:\Users\snutecht\Desktop\logo_png2.png"
         inkscape:export-xdpi="87.724617"
         inkscape:export-ydpi="87.724617"
         inkscape:connector-curvature="0" />
      <path
         style="fill:#000000;fill-opacity:1;stroke:none"
         d="m 296.48361,708.69914 -4.93198,1.46698 -0.0719,0.97799 1.50833,0.15282 -1.00554,8.20593 -1.22104,0.67237 0.0958,1.29889 4.23768,-0.80989 -0.23941,-1.14608 -1.31679,0.0458 -0.11971,-1.1308 2.37022,-0.0458 0.88584,2.09352 -1.10131,0.29034 -0.0239,1.57394 3.28,-1.06967 -0.26335,-1.36002 -0.64643,0.0458 -2.51388,-9.5354 1.17314,-0.0764 -0.0958,-1.65035 z m -2.15475,4.23286 c 0.56327,1.1756 1.29619,2.28405 1.4365,3.62162 l -2.22657,0.0305 0.79007,-3.65219 z"
         id="path4199"
         inkscape:export-filename="C:\Users\snutecht\Desktop\logo_png2.png"
         inkscape:export-xdpi="87.724617"
         inkscape:export-ydpi="87.724617"
         inkscape:connector-curvature="0" />
      <path
         style="fill:#000000;fill-opacity:1;stroke:none"
         d="m 302.49298,710.39999 1.40231,0.0219 0.2052,2.16117 c -7.18685,0.0171 -4.36723,1.76475 -1.26544,2.81603 2.49822,0.84671 4.44842,2.61434 -1.84698,3.05625 l -0.0684,0.89503 -1.74433,0.0436 0.0684,-2.33583 1.19709,0.17465 0.71825,0.34928 c 4.62723,-0.50214 -0.65261,-1.74548 -3.04401,-2.64144 -0.97734,-1.19963 0.69317,-3.76791 2.73619,-3.68929 l 1.16288,0.19646 z"
         id="path4201"
         inkscape:connector-curvature="0"
         sodipodi:nodetypes="cccscccccccccc"
         inkscape:export-filename="C:\Users\snutecht\Desktop\logo_png2.png"
         inkscape:export-xdpi="87.724617"
         inkscape:export-ydpi="87.724617" />
      <path
         style="fill:#000000;fill-opacity:1;stroke:none"
         d="m 300.85811,708.08599 14.29661,-1.02602 -0.85506,1.92105 -6.01963,0.13098 0.30782,9.40879 1.4365,0.24013 -0.13681,1.50628 -5.78019,0.2183 0.0342,-1.30981 1.88113,-0.58941 0.20521,-8.99402 -5.84861,0.0873 z"
         id="path4203"
         inkscape:connector-curvature="0"
         inkscape:export-filename="C:\Users\snutecht\Desktop\logo_png2.png"
         inkscape:export-xdpi="87.724617"
         inkscape:export-ydpi="87.724617" />
      <path
         sodipodi:nodetypes="ccccccccccccccc"
         inkscape:connector-curvature="0"
         id="path4205"
         d="m 342.81762,704.94245 3.35183,-1.5281 -0.30782,7.64054 -2.18895,0.85138 c -1.80039,-2.96478 -3.89319,-4.53841 -5.54079,-1.8119 l 0,4.497 c 0.28802,1.48368 2.26468,2.2212 3.62545,3.23086 0.4339,-0.15708 1.09146,-0.19177 1.60751,-0.87321 0.2134,0.50542 0.63578,0.9274 0.34203,1.52811 -0.81194,0.39692 -0.12781,0.20505 -2.29156,0.7204 l -0.99187,0.0436 c -3.22733,-1.1354 -4.68649,-2.74037 -5.13036,-4.84629 l -0.17101,-4.58433 c 2.00899,-3.10087 3.7673,-4.93907 7.69554,-2.22667 z"
         style="fill:#000000;fill-opacity:1;stroke:none"
         inkscape:export-filename="C:\Users\snutecht\Desktop\logo_png2.png"
         inkscape:export-xdpi="87.724617"
         inkscape:export-ydpi="87.724617" />
      <path
         id="path4207"
         d="m 348.15661,710.94327 -2.20263,0.36675 c -2.15087,1.88182 -2.06079,3.32246 -1.84351,5.654 1.00202,0.61337 1.92484,1.00121 3.23212,1.19193 l 2.10687,-1.40586 0.14365,-4.75242 -1.4365,-1.0544 z m 0,1.22249 0.0958,4.06477 -1.10131,1.06968 -1.12527,-0.25978 -0.79007,-1.17664 0.0478,-2.10879 1.10132,-1.22249 1.77168,-0.36675 z"
         style="fill:#000000;fill-opacity:1;stroke:none"
         inkscape:connector-curvature="0"
         inkscape:export-filename="C:\Users\snutecht\Desktop\logo_png2.png"
         inkscape:export-xdpi="87.724617"
         inkscape:export-ydpi="87.724617" />
      <path
         id="path4209"
         d="m 354.76452,705.9922 -4.93199,1.46699 -0.0718,0.97799 1.50832,0.15281 -1.00555,8.20594 -1.22102,0.67237 0.0958,1.29889 4.23768,-0.8099 -0.23942,-1.14608 -1.31679,0.0458 -0.11971,-1.13081 2.37023,-0.0458 0.88584,2.0935 -1.10132,0.29035 -0.0239,1.57395 3.28001,-1.06968 -0.26336,-1.36001 -0.64642,0.0458 -2.51388,-9.53539 1.17314,-0.0764 -0.0958,-1.65036 z m -2.15475,4.23287 c 0.56325,1.1756 1.29619,2.28404 1.4365,3.62161 l -2.22658,0.0305 0.79008,-3.65218 z"
         style="fill:#000000;fill-opacity:1;stroke:none"
         inkscape:connector-curvature="0"
         inkscape:export-filename="C:\Users\snutecht\Desktop\logo_png2.png"
         inkscape:export-xdpi="87.724617"
         inkscape:export-ydpi="87.724617" />
      <path
         sodipodi:nodetypes="cccscccccccccc"
         inkscape:connector-curvature="0"
         id="path4211"
         d="m 360.77388,707.69305 1.4023,0.0219 0.20521,2.16118 c -7.18685,0.0171 -4.36723,1.76475 -1.26544,2.81603 2.49822,0.84671 4.44841,2.61433 -1.84698,3.05625 l -0.0684,0.89503 -1.74433,0.0436 0.0684,-2.33583 1.19709,0.17464 0.71826,0.34928 c 4.62722,-0.50213 -0.65261,-1.74548 -3.04402,-2.64144 -0.97734,-1.19962 0.69317,-3.7679 2.7362,-3.68929 l 1.16287,0.19647 z"
         style="fill:#000000;fill-opacity:1;stroke:none"
         inkscape:export-filename="C:\Users\snutecht\Desktop\logo_png2.png"
         inkscape:export-xdpi="87.724617"
         inkscape:export-ydpi="87.724617" />
      <path
         inkscape:connector-curvature="0"
         id="path4213"
         d="m 359.139,705.37906 14.29662,-1.02602 -0.85506,1.92105 -6.01964,0.13098 0.30783,9.40878 1.4365,0.24013 -0.13681,1.50629 -5.7802,0.2183 0.0342,-1.30981 1.88114,-0.58941 0.2052,-8.99401 -5.84861,0.0873 z"
         style="fill:#000000;fill-opacity:1;stroke:none"
         inkscape:export-filename="C:\Users\snutecht\Desktop\logo_png2.png"
         inkscape:export-xdpi="87.724617"
         inkscape:export-ydpi="87.724617" />
      <path
         style="fill:#000000;fill-opacity:1;stroke:#000000;stroke-width:0.61207467px;stroke-linecap:butt;stroke-linejoin:miter;stroke-opacity:1"
         d="m 321.03068,707.86769 c 0,0.15281 -0.0342,3.60197 -0.0342,3.60197 l -1.91533,0.5021 0,1.00418 1.64171,-0.13098 -0.13681,3.01255 1.3681,0 0.0342,-4.0604 1.60752,-0.28379 -0.34202,-0.82954 -1.50491,0.28379 0.30782,-3.20903 -1.3681,0.10915 z"
         id="path4215"
         inkscape:connector-curvature="0"
         inkscape:export-filename="C:\Users\snutecht\Desktop\logo_png2.png"
         inkscape:export-xdpi="87.724617"
         inkscape:export-ydpi="87.724617" />
      <path
         sodipodi:nodetypes="cccccccccc"
         inkscape:connector-curvature="0"
         id="path4217"
         d="m 325.33138,710.66195 c 0.36486,1.23557 -2.78736,2.51853 -1.087,3.83126 1.47451,-0.5964 1.44562,-1.50482 1.79261,-2.61477 l -0.87723,0.36355 0.91537,-1.10463 0.61025,0.13983 c 0.0651,1.64688 -0.59873,3.13586 -1.88795,3.66346 l -0.87724,-0.0279 c -0.49257,-0.20685 -0.48023,-0.50624 -0.59118,-0.78304 -0.206,-1.43608 0.96252,-2.53027 2.00237,-3.4677 z"
         style="fill:#000000;fill-opacity:1;stroke:#000000;stroke-width:0.61207467;stroke-opacity:1"
         inkscape:export-filename="C:\Users\snutecht\Desktop\logo_png2.png"
         inkscape:export-xdpi="87.724617"
         inkscape:export-ydpi="87.724617" />
    </g>
  </g>
</svg>
